<mxfile host="app.diagrams.net" modified="2024-06-24T09:54:30.463Z" agent="Mozilla/5.0 (Windows NT 10.0; Win64; x64) AppleWebKit/537.36 (KHTML, like Gecko) Chrome/126.0.0.0 Safari/537.36" etag="fjfooeoxET8JatTKFEsD" version="24.4.13" type="device" pages="2">
  <diagram id="yb49rx6w2PYvyugQtVp_" name="Simple delpoyment ">
    <mxGraphModel dx="1674" dy="892" grid="1" gridSize="10" guides="1" tooltips="1" connect="1" arrows="1" fold="1" page="1" pageScale="1" pageWidth="850" pageHeight="1100" math="0" shadow="0">
      <root>
        <mxCell id="0" />
        <mxCell id="1" parent="0" />
        <mxCell id="uhG4YwC8ldVMHGSl_bex-1" value="Jenkins" style="rounded=0;whiteSpace=wrap;html=1;" vertex="1" parent="1">
          <mxGeometry x="240" y="80" width="120" height="60" as="geometry" />
        </mxCell>
        <mxCell id="uhG4YwC8ldVMHGSl_bex-2" value="" style="endArrow=classic;html=1;rounded=0;" edge="1" parent="1">
          <mxGeometry width="50" height="50" relative="1" as="geometry">
            <mxPoint x="140" y="110" as="sourcePoint" />
            <mxPoint x="240" y="110" as="targetPoint" />
          </mxGeometry>
        </mxCell>
        <mxCell id="G0cFC70zCTmB0lZxngho-1" value="" style="dashed=0;outlineConnect=0;html=1;align=center;labelPosition=center;verticalLabelPosition=bottom;verticalAlign=top;shape=mxgraph.webicons.github;gradientColor=#DFDEDE" vertex="1" parent="1">
          <mxGeometry x="30" y="58.8" width="102.4" height="102.4" as="geometry" />
        </mxCell>
        <mxCell id="G0cFC70zCTmB0lZxngho-2" value="" style="endArrow=classic;html=1;rounded=0;" edge="1" parent="1">
          <mxGeometry width="50" height="50" relative="1" as="geometry">
            <mxPoint x="360" y="120" as="sourcePoint" />
            <mxPoint x="460" y="120" as="targetPoint" />
          </mxGeometry>
        </mxCell>
        <mxCell id="AM3liKbqM1L85apQDmbP-1" value="" style="image;sketch=0;aspect=fixed;html=1;points=[];align=center;fontSize=12;image=img/lib/mscae/Docker.svg;" vertex="1" parent="1">
          <mxGeometry x="470" y="89.5" width="50" height="41" as="geometry" />
        </mxCell>
        <mxCell id="AM3liKbqM1L85apQDmbP-2" value="" style="sketch=0;points=[[0,0,0],[0.25,0,0],[0.5,0,0],[0.75,0,0],[1,0,0],[0,1,0],[0.25,1,0],[0.5,1,0],[0.75,1,0],[1,1,0],[0,0.25,0],[0,0.5,0],[0,0.75,0],[1,0.25,0],[1,0.5,0],[1,0.75,0]];outlineConnect=0;fontColor=#232F3E;fillColor=#DD344C;strokeColor=#ffffff;dashed=0;verticalLabelPosition=bottom;verticalAlign=top;align=center;html=1;fontSize=12;fontStyle=0;aspect=fixed;shape=mxgraph.aws4.resourceIcon;resIcon=mxgraph.aws4.artifact;" vertex="1" parent="1">
          <mxGeometry x="456" y="230" width="78" height="78" as="geometry" />
        </mxCell>
        <mxCell id="AM3liKbqM1L85apQDmbP-3" value="" style="endArrow=classic;html=1;rounded=0;" edge="1" parent="1">
          <mxGeometry width="50" height="50" relative="1" as="geometry">
            <mxPoint x="500" y="135" as="sourcePoint" />
            <mxPoint x="500" y="220" as="targetPoint" />
          </mxGeometry>
        </mxCell>
        <mxCell id="AM3liKbqM1L85apQDmbP-4" value="" style="outlineConnect=0;dashed=0;verticalLabelPosition=bottom;verticalAlign=top;align=center;html=1;shape=mxgraph.aws3.postgre_sql_instance;fillColor=#2E73B8;gradientColor=none;" vertex="1" parent="1">
          <mxGeometry x="750" y="397" width="60" height="63" as="geometry" />
        </mxCell>
        <mxCell id="AM3liKbqM1L85apQDmbP-5" value="" style="endArrow=classic;html=1;rounded=0;exitX=0.5;exitY=1;exitDx=0;exitDy=0;exitPerimeter=0;" edge="1" parent="1">
          <mxGeometry width="50" height="50" relative="1" as="geometry">
            <mxPoint x="492.5" y="308" as="sourcePoint" />
            <mxPoint x="490" y="400" as="targetPoint" />
          </mxGeometry>
        </mxCell>
        <mxCell id="AM3liKbqM1L85apQDmbP-6" value="" style="image;aspect=fixed;perimeter=ellipsePerimeter;html=1;align=center;shadow=0;dashed=0;spacingTop=3;image=img/lib/active_directory/database_server.svg;" vertex="1" parent="1">
          <mxGeometry x="474.5" y="410" width="41" height="50" as="geometry" />
        </mxCell>
        <mxCell id="AM3liKbqM1L85apQDmbP-7" value="" style="endArrow=none;dashed=1;html=1;dashPattern=1 3;strokeWidth=2;rounded=0;" edge="1" parent="1" target="AM3liKbqM1L85apQDmbP-4">
          <mxGeometry width="50" height="50" relative="1" as="geometry">
            <mxPoint x="520" y="430" as="sourcePoint" />
            <mxPoint x="570" y="380" as="targetPoint" />
          </mxGeometry>
        </mxCell>
        <mxCell id="AM3liKbqM1L85apQDmbP-8" value="" style="endArrow=classic;startArrow=classic;html=1;rounded=0;entryX=0.05;entryY=0.95;entryDx=0;entryDy=0;entryPerimeter=0;" edge="1" parent="1">
          <mxGeometry width="50" height="50" relative="1" as="geometry">
            <mxPoint x="517" y="443.15" as="sourcePoint" />
            <mxPoint x="750" y="439.9999999999999" as="targetPoint" />
          </mxGeometry>
        </mxCell>
        <mxCell id="W-1WwvfQf49BfcCnIo8O-1" value="Github" style="text;html=1;align=center;verticalAlign=middle;resizable=0;points=[];autosize=1;strokeColor=none;fillColor=none;" vertex="1" parent="1">
          <mxGeometry x="40" y="158" width="60" height="30" as="geometry" />
        </mxCell>
        <mxCell id="W-1WwvfQf49BfcCnIo8O-2" value="Docker" style="text;html=1;align=center;verticalAlign=middle;resizable=0;points=[];autosize=1;strokeColor=none;fillColor=none;" vertex="1" parent="1">
          <mxGeometry x="520" y="88" width="60" height="30" as="geometry" />
        </mxCell>
        <mxCell id="W-1WwvfQf49BfcCnIo8O-3" value="Artifact" style="text;html=1;align=center;verticalAlign=middle;resizable=0;points=[];autosize=1;strokeColor=none;fillColor=none;" vertex="1" parent="1">
          <mxGeometry x="550" y="218" width="60" height="30" as="geometry" />
        </mxCell>
        <mxCell id="W-1WwvfQf49BfcCnIo8O-4" value="Server" style="text;html=1;align=center;verticalAlign=middle;resizable=0;points=[];autosize=1;strokeColor=none;fillColor=none;" vertex="1" parent="1">
          <mxGeometry x="460" y="488" width="60" height="30" as="geometry" />
        </mxCell>
      </root>
    </mxGraphModel>
  </diagram>
  <diagram name="Azure" id="3DtD96aW4q_5SKu1PEmF">
    <mxGraphModel dx="1674" dy="892" grid="1" gridSize="10" guides="1" tooltips="1" connect="1" arrows="1" fold="1" page="1" pageScale="1" pageWidth="850" pageHeight="1100" math="0" shadow="0">
      <root>
        <mxCell id="0" />
        <mxCell id="1" parent="0" />
        <mxCell id="j5kHvW-AeX4OJAYs9I1w-1" value="" style="image;aspect=fixed;html=1;points=[];align=center;fontSize=12;image=img/lib/azure2/app_services/App_Services.svg;" vertex="1" parent="1">
          <mxGeometry x="180" y="390" width="64" height="64" as="geometry" />
        </mxCell>
        <mxCell id="y4n8BK5lundQYC1cSIpg-1" value="" style="image;aspect=fixed;html=1;points=[];align=center;fontSize=12;image=img/lib/azure2/networking/Application_Gateways.svg;" vertex="1" parent="1">
          <mxGeometry x="260" y="540" width="64" height="64" as="geometry" />
        </mxCell>
        <mxCell id="y4n8BK5lundQYC1cSIpg-2" value="" style="image;aspect=fixed;html=1;points=[];align=center;fontSize=12;image=img/lib/azure2/databases/Azure_Database_PostgreSQL_Server.svg;" vertex="1" parent="1">
          <mxGeometry x="650" y="394" width="48" height="64" as="geometry" />
        </mxCell>
        <mxCell id="y4n8BK5lundQYC1cSIpg-3" value="" style="dashed=0;outlineConnect=0;html=1;align=center;labelPosition=center;verticalLabelPosition=bottom;verticalAlign=top;shape=mxgraph.webicons.github;gradientColor=#DFDEDE" vertex="1" parent="1">
          <mxGeometry x="60" y="50" width="102.4" height="102.4" as="geometry" />
        </mxCell>
        <mxCell id="y4n8BK5lundQYC1cSIpg-4" value="" style="image;aspect=fixed;html=1;points=[];align=center;fontSize=12;image=img/lib/azure2/devops/Azure_DevOps.svg;" vertex="1" parent="1">
          <mxGeometry x="300" y="79.99999999999999" width="50" height="50" as="geometry" />
        </mxCell>
        <mxCell id="y4n8BK5lundQYC1cSIpg-5" value="" style="image;aspect=fixed;html=1;points=[];align=center;fontSize=12;image=img/lib/azure2/containers/Container_Registries.svg;" vertex="1" parent="1">
          <mxGeometry x="282" y="290" width="68" height="61" as="geometry" />
        </mxCell>
        <mxCell id="LFJi09irLXMfHXcB5fkf-1" value="" style="image;aspect=fixed;html=1;points=[];align=center;fontSize=12;image=img/lib/azure2/app_services/App_Services.svg;" vertex="1" parent="1">
          <mxGeometry x="368" y="394" width="64" height="64" as="geometry" />
        </mxCell>
        <mxCell id="LFJi09irLXMfHXcB5fkf-2" value="WEB" style="text;html=1;align=center;verticalAlign=middle;resizable=0;points=[];autosize=1;strokeColor=none;fillColor=none;" vertex="1" parent="1">
          <mxGeometry x="145" y="458" width="50" height="30" as="geometry" />
        </mxCell>
        <mxCell id="LFJi09irLXMfHXcB5fkf-3" value="API" style="text;html=1;align=center;verticalAlign=middle;resizable=0;points=[];autosize=1;strokeColor=none;fillColor=none;" vertex="1" parent="1">
          <mxGeometry x="385" y="458" width="40" height="30" as="geometry" />
        </mxCell>
        <mxCell id="LFJi09irLXMfHXcB5fkf-4" value="" style="endArrow=classic;startArrow=classic;html=1;rounded=0;entryX=0.016;entryY=0.359;entryDx=0;entryDy=0;entryPerimeter=0;" edge="1" parent="1" target="LFJi09irLXMfHXcB5fkf-1">
          <mxGeometry width="50" height="50" relative="1" as="geometry">
            <mxPoint x="244" y="420" as="sourcePoint" />
            <mxPoint x="294" y="370" as="targetPoint" />
          </mxGeometry>
        </mxCell>
        <mxCell id="LFJi09irLXMfHXcB5fkf-5" value="" style="endArrow=classic;startArrow=classic;html=1;rounded=0;entryX=0.021;entryY=0.516;entryDx=0;entryDy=0;entryPerimeter=0;" edge="1" parent="1" target="y4n8BK5lundQYC1cSIpg-2">
          <mxGeometry width="50" height="50" relative="1" as="geometry">
            <mxPoint x="425" y="430" as="sourcePoint" />
            <mxPoint x="475" y="380" as="targetPoint" />
          </mxGeometry>
        </mxCell>
        <mxCell id="LFJi09irLXMfHXcB5fkf-6" value="" style="endArrow=classic;html=1;rounded=0;exitX=1.059;exitY=1.066;exitDx=0;exitDy=0;exitPerimeter=0;" edge="1" parent="1" source="y4n8BK5lundQYC1cSIpg-5" target="LFJi09irLXMfHXcB5fkf-1">
          <mxGeometry width="50" height="50" relative="1" as="geometry">
            <mxPoint x="350" y="281" as="sourcePoint" />
            <mxPoint x="400" y="231" as="targetPoint" />
          </mxGeometry>
        </mxCell>
        <mxCell id="LFJi09irLXMfHXcB5fkf-7" value="" style="endArrow=classic;html=1;rounded=0;" edge="1" parent="1" target="y4n8BK5lundQYC1cSIpg-4">
          <mxGeometry width="50" height="50" relative="1" as="geometry">
            <mxPoint x="162.4" y="110" as="sourcePoint" />
            <mxPoint x="212.4" y="60" as="targetPoint" />
          </mxGeometry>
        </mxCell>
        <mxCell id="LFJi09irLXMfHXcB5fkf-9" value="" style="endArrow=classic;html=1;rounded=0;" edge="1" parent="1" source="y4n8BK5lundQYC1cSIpg-5" target="j5kHvW-AeX4OJAYs9I1w-1">
          <mxGeometry width="50" height="50" relative="1" as="geometry">
            <mxPoint x="309" y="270" as="sourcePoint" />
            <mxPoint x="359" y="220" as="targetPoint" />
          </mxGeometry>
        </mxCell>
        <mxCell id="LFJi09irLXMfHXcB5fkf-10" value="Github" style="text;html=1;align=center;verticalAlign=middle;resizable=0;points=[];autosize=1;strokeColor=none;fillColor=none;" vertex="1" parent="1">
          <mxGeometry x="35" y="152.4" width="60" height="30" as="geometry" />
        </mxCell>
        <mxCell id="LFJi09irLXMfHXcB5fkf-11" value="Azure Devops" style="text;html=1;align=center;verticalAlign=middle;resizable=0;points=[];autosize=1;strokeColor=none;fillColor=none;" vertex="1" parent="1">
          <mxGeometry x="360" y="100" width="100" height="30" as="geometry" />
        </mxCell>
        <mxCell id="LFJi09irLXMfHXcB5fkf-12" value="ACR" style="text;html=1;align=center;verticalAlign=middle;resizable=0;points=[];autosize=1;strokeColor=none;fillColor=none;" vertex="1" parent="1">
          <mxGeometry x="350" y="320" width="50" height="30" as="geometry" />
        </mxCell>
        <mxCell id="LFJi09irLXMfHXcB5fkf-13" value="PG by Azure&lt;div&gt;&lt;br&gt;&lt;/div&gt;" style="text;html=1;align=center;verticalAlign=middle;resizable=0;points=[];autosize=1;strokeColor=none;fillColor=none;" vertex="1" parent="1">
          <mxGeometry x="640" y="458" width="90" height="40" as="geometry" />
        </mxCell>
        <mxCell id="LFJi09irLXMfHXcB5fkf-16" value="" style="endArrow=classic;startArrow=classic;html=1;rounded=0;" edge="1" parent="1" target="y4n8BK5lundQYC1cSIpg-1">
          <mxGeometry width="50" height="50" relative="1" as="geometry">
            <mxPoint x="230" y="451" as="sourcePoint" />
            <mxPoint x="280" y="401" as="targetPoint" />
          </mxGeometry>
        </mxCell>
        <mxCell id="LFJi09irLXMfHXcB5fkf-17" value="" style="endArrow=classic;startArrow=classic;html=1;rounded=0;entryX=0.15;entryY=0.033;entryDx=0;entryDy=0;entryPerimeter=0;" edge="1" parent="1" target="LFJi09irLXMfHXcB5fkf-3">
          <mxGeometry width="50" height="50" relative="1" as="geometry">
            <mxPoint x="310" y="550" as="sourcePoint" />
            <mxPoint x="360" y="500" as="targetPoint" />
          </mxGeometry>
        </mxCell>
        <mxCell id="LFJi09irLXMfHXcB5fkf-18" value="" style="endArrow=classic;html=1;rounded=0;" edge="1" parent="1">
          <mxGeometry width="50" height="50" relative="1" as="geometry">
            <mxPoint x="300" y="600" as="sourcePoint" />
            <mxPoint x="300" y="720" as="targetPoint" />
          </mxGeometry>
        </mxCell>
        <mxCell id="LFJi09irLXMfHXcB5fkf-19" value="" style="image;aspect=fixed;perimeter=ellipsePerimeter;html=1;align=center;shadow=0;dashed=0;spacingTop=3;image=img/lib/active_directory/internet_globe.svg;" vertex="1" parent="1">
          <mxGeometry x="274" y="730" width="50" height="50" as="geometry" />
        </mxCell>
        <mxCell id="LFJi09irLXMfHXcB5fkf-20" value="" style="endArrow=classic;html=1;rounded=0;entryX=0.469;entryY=0.781;entryDx=0;entryDy=0;entryPerimeter=0;" edge="1" parent="1" target="y4n8BK5lundQYC1cSIpg-1">
          <mxGeometry width="50" height="50" relative="1" as="geometry">
            <mxPoint x="290" y="730" as="sourcePoint" />
            <mxPoint x="340" y="680" as="targetPoint" />
          </mxGeometry>
        </mxCell>
        <mxCell id="Rnr1JFB0RIbdw85Ychrz-1" value="" style="image;sketch=0;aspect=fixed;html=1;points=[];align=center;fontSize=12;image=img/lib/mscae/Azure_Pipelines.svg;" vertex="1" parent="1">
          <mxGeometry x="300" y="190" width="50" height="50" as="geometry" />
        </mxCell>
        <mxCell id="Rnr1JFB0RIbdw85Ychrz-2" value="" style="endArrow=classic;html=1;rounded=0;entryX=0.7;entryY=-0.06;entryDx=0;entryDy=0;entryPerimeter=0;" edge="1" parent="1" target="Rnr1JFB0RIbdw85Ychrz-1">
          <mxGeometry width="50" height="50" relative="1" as="geometry">
            <mxPoint x="335" y="130" as="sourcePoint" />
            <mxPoint x="385" y="80" as="targetPoint" />
          </mxGeometry>
        </mxCell>
        <mxCell id="Rnr1JFB0RIbdw85Ychrz-3" value="" style="endArrow=classic;html=1;rounded=0;entryX=0.765;entryY=-0.016;entryDx=0;entryDy=0;entryPerimeter=0;" edge="1" parent="1" target="y4n8BK5lundQYC1cSIpg-5">
          <mxGeometry width="50" height="50" relative="1" as="geometry">
            <mxPoint x="335" y="240" as="sourcePoint" />
            <mxPoint x="385" y="190" as="targetPoint" />
          </mxGeometry>
        </mxCell>
        <mxCell id="Rnr1JFB0RIbdw85Ychrz-4" value="Pipeline" style="text;html=1;align=center;verticalAlign=middle;resizable=0;points=[];autosize=1;strokeColor=none;fillColor=none;" vertex="1" parent="1">
          <mxGeometry x="355" y="208" width="70" height="30" as="geometry" />
        </mxCell>
      </root>
    </mxGraphModel>
  </diagram>
</mxfile>
